<?xml version="1.0" encoding="utf-8"?>
<!-- Generator: Adobe Illustrator 22.0.1, SVG Export Plug-In . SVG Version: 6.00 Build 0)  -->
<svg version="1.1" id="Stars_Active" xmlns="http://www.w3.org/2000/svg" xmlns:xlink="http://www.w3.org/1999/xlink" x="0px"
	 y="0px" viewBox="0 0 69.1 11.6" style="enable-background:new 0 0 69.1 11.6;" xml:space="preserve">
<style type="text/css">
	.st0{fill:url(#Forma_1_1_);}
	.st1{fill:url(#Forma_1_copy_1_);}
	.st2{fill:url(#Forma_1_copy_2_1_);}
	.st3{fill:url(#Forma_1_copy_3_1_);}
	.st4{fill:url(#Forma_1_copy_4_1_);}
</style>
<title>stars-1</title>
<linearGradient id="Forma_1_1_" gradientUnits="userSpaceOnUse" x1="7.252" y1="13.0002" x2="7.252" y2="1.3508" gradientTransform="matrix(1 0 0 -1 -1.01 13)">
	<stop  offset="0" style="stop-color:#FFFF74"/>
	<stop  offset="1" style="stop-color:#FF7F00"/>
</linearGradient>
<path id="Forma_1" class="st0" d="M12.2,5.3c0.2-0.2,0.3-0.6,0.2-0.9c-0.1-0.3-0.4-0.6-0.7-0.6l-3-0.4c-0.1,0-0.2-0.1-0.3-0.2L7,0.5
	C6.8,0.1,6.2-0.1,5.8,0.1C5.6,0.2,5.5,0.3,5.4,0.5L4.1,3.2C4,3.3,3.9,3.3,3.8,3.4l-3,0.4C0.4,3.8,0.2,4.1,0.1,4.4
	C0,4.7,0,5.1,0.3,5.3l2.2,2.1c0.1,0.1,0.1,0.2,0.1,0.3L2,10.6c0,0.3,0,0.5,0.2,0.7c0.3,0.3,0.7,0.4,1.1,0.2l2.7-1.4
	c0.1-0.1,0.3-0.1,0.4,0l2.7,1.4c0.4,0.2,0.8,0.1,1.1-0.2c0.2-0.2,0.2-0.5,0.2-0.7L9.9,7.7c0-0.1,0-0.3,0.1-0.3L12.2,5.3z"/>
<linearGradient id="Forma_1_copy_1_" gradientUnits="userSpaceOnUse" x1="21.4" y1="13.0335" x2="21.4" y2="1.3474" gradientTransform="matrix(1 0 0 -1 -1.01 13)">
	<stop  offset="0" style="stop-color:#FFFF74"/>
	<stop  offset="1" style="stop-color:#FF7F00"/>
</linearGradient>
<path id="Forma_1_copy" class="st1" d="M26.4,5.3c0.2-0.2,0.3-0.6,0.2-0.9c-0.1-0.3-0.4-0.6-0.7-0.6l-3-0.4c-0.1,0-0.2-0.1-0.3-0.2
	l-1.4-2.7C21,0,20.4-0.1,20,0.1c-0.2,0.1-0.3,0.2-0.4,0.4l-1.4,2.7c-0.1,0.1-0.2,0.2-0.3,0.2l-3,0.4c-0.3,0.1-0.6,0.3-0.7,0.6
	c-0.1,0.3,0,0.7,0.2,0.9l2.2,2.1c0.1,0.1,0.1,0.2,0.1,0.3l-0.5,2.9c0,0.3,0,0.5,0.2,0.7c0.3,0.3,0.7,0.4,1.1,0.2l2.7-1.4
	c0.1-0.1,0.2-0.1,0.4,0l2.7,1.4c0.4,0.2,0.8,0.1,1.1-0.2c0.2-0.2,0.2-0.5,0.2-0.7L24,7.7c0-0.1,0-0.3,0.1-0.3L26.4,5.3z"/>
<linearGradient id="Forma_1_copy_2_1_" gradientUnits="userSpaceOnUse" x1="34.54" y1="-1.020018e-02" x2="34.54" y2="11.6491">
	<stop  offset="0" style="stop-color:#FFFF74"/>
	<stop  offset="1" style="stop-color:#FF7F00"/>
</linearGradient>
<path id="Forma_1_copy_2" class="st2" d="M40.5,5.3c0.2-0.2,0.3-0.6,0.2-0.9c-0.1-0.3-0.4-0.5-0.7-0.6l-3-0.4
	c-0.1,0-0.2-0.1-0.3-0.2l-1.4-2.7c-0.2-0.4-0.7-0.6-1.2-0.4c-0.2,0.1-0.3,0.2-0.4,0.4l-1.4,2.7c-0.1,0.1-0.2,0.2-0.3,0.2l-3,0.4
	c-0.3,0-0.6,0.3-0.7,0.6c-0.1,0.3,0,0.7,0.2,0.9l2.2,2.1c0.1,0.1,0.1,0.2,0.1,0.3l-0.5,2.9c0,0.3,0,0.5,0.2,0.7
	c0.3,0.3,0.7,0.4,1.1,0.2l2.7-1.4c0.1-0.1,0.3-0.1,0.4,0l2.7,1.4c0.4,0.2,0.8,0.1,1.1-0.2c0.2-0.2,0.2-0.5,0.2-0.7l-0.5-2.9
	c0-0.1,0-0.3,0.1-0.3L40.5,5.3z"/>
<linearGradient id="Forma_1_copy_3_1_" gradientUnits="userSpaceOnUse" x1="48.688" y1="-2.864299e-03" x2="48.688" y2="11.648">
	<stop  offset="0" style="stop-color:#FFFF74"/>
	<stop  offset="1" style="stop-color:#FF7F00"/>
</linearGradient>
<path id="Forma_1_copy_3" class="st3" d="M54.6,5.3c0.2-0.2,0.3-0.6,0.2-0.9c-0.1-0.3-0.4-0.5-0.7-0.6l-3-0.4
	c-0.1,0-0.2-0.1-0.3-0.2l-1.4-2.7c-0.2-0.4-0.8-0.6-1.2-0.4c0,0,0,0,0,0c-0.2,0.1-0.3,0.2-0.4,0.4l-1.4,2.7
	c-0.1,0.1-0.2,0.2-0.3,0.2l-3,0.4c-0.3,0-0.6,0.3-0.7,0.6c-0.1,0.3,0,0.7,0.2,0.9l2.2,2.1C45,7.5,45,7.6,45,7.7l-0.5,2.9
	c0,0.3,0,0.5,0.2,0.7c0.3,0.3,0.7,0.4,1.1,0.2l2.7-1.4c0.1,0,0.3,0,0.4,0l2.7,1.4c0.4,0.2,0.8,0.1,1.1-0.2c0.2-0.2,0.2-0.5,0.2-0.7
	l-0.5-2.9c0-0.1,0-0.3,0.1-0.3L54.6,5.3z"/>
<linearGradient id="Forma_1_copy_4_1_" gradientUnits="userSpaceOnUse" x1="62.8237" y1="-2.864299e-03" x2="62.8237" y2="11.648">
	<stop  offset="0" style="stop-color:#FFF031"/>
	<stop  offset="4.763720e-04" style="stop-color:#FFFF74"/>
	<stop  offset="1" style="stop-color:#FF7F00"/>
</linearGradient>
<path id="Forma_1_copy_4" class="st4" d="M68.8,5.3C69,5,69.1,4.7,69,4.4c-0.1-0.3-0.4-0.5-0.7-0.6l-3-0.4c-0.1,0-0.2-0.1-0.3-0.2
	l-1.4-2.7c-0.2-0.4-0.8-0.6-1.2-0.4c0,0,0,0,0,0c-0.2,0.1-0.3,0.2-0.4,0.4l-1.3,2.7c-0.1,0.1-0.2,0.2-0.3,0.2l-3,0.4
	c-0.3,0.1-0.6,0.3-0.7,0.6c-0.1,0.3,0,0.7,0.2,0.9l2.2,2.1c0.1,0.1,0.1,0.2,0.1,0.3l-0.5,2.9c0,0.3,0,0.5,0.2,0.7
	c0.3,0.3,0.7,0.4,1.1,0.2l2.7-1.4c0.1,0,0.3,0,0.4,0l2.7,1.4c0.4,0.2,0.8,0.1,1.1-0.2c0.2-0.2,0.2-0.5,0.2-0.7l-0.5-2.9
	c0-0.1,0-0.3,0.1-0.3L68.8,5.3z"/>
</svg>
