<?xml version="1.0" encoding="utf-8"?>
<!-- Generator: Adobe Illustrator 22.0.1, SVG Export Plug-In . SVG Version: 6.00 Build 0)  -->
<svg version="1.1" id="Stars_Active" xmlns="http://www.w3.org/2000/svg" xmlns:xlink="http://www.w3.org/1999/xlink" x="0px"
	 y="0px" viewBox="0 0 69.1 11.6" style="enable-background:new 0 0 69.1 11.6;" xml:space="preserve">
<style type="text/css">
	.st0{fill:#FFAF10;}
</style>
<title>stars-1</title>
<path id="Forma_1" class="st0" d="M12.2,5.3c0.2-0.2,0.3-0.6,0.2-0.9S12,3.8,11.7,3.8l-3-0.4c-0.1,0-0.2-0.1-0.3-0.2L7,0.5
	C6.8,0.1,6.2-0.1,5.8,0.1C5.6,0.2,5.5,0.3,5.4,0.5L4.1,3.2C4,3.3,3.9,3.3,3.8,3.4l-3,0.4c-0.4,0-0.6,0.3-0.7,0.6
	C0,4.7,0,5.1,0.3,5.3l2.2,2.1c0.1,0.1,0.1,0.2,0.1,0.3L2,10.6c0,0.3,0,0.5,0.2,0.7c0.3,0.3,0.7,0.4,1.1,0.2L6,10.1
	c0.1-0.1,0.3-0.1,0.4,0l2.7,1.4c0.4,0.2,0.8,0.1,1.1-0.2c0.2-0.2,0.2-0.5,0.2-0.7L9.9,7.7c0-0.1,0-0.3,0.1-0.3L12.2,5.3z"/>
<path id="Forma_1_copy" class="st0" d="M26.4,5.3c0.2-0.2,0.3-0.6,0.2-0.9c-0.1-0.3-0.4-0.6-0.7-0.6l-3-0.4c-0.1,0-0.2-0.1-0.3-0.2
	l-1.4-2.7C21,0,20.4-0.1,20,0.1c-0.2,0.1-0.3,0.2-0.4,0.4l-1.4,2.7c-0.1,0.1-0.2,0.2-0.3,0.2l-3,0.4c-0.3,0.1-0.6,0.3-0.7,0.6
	c-0.1,0.3,0,0.7,0.2,0.9l2.2,2.1c0.1,0.1,0.1,0.2,0.1,0.3l-0.5,2.9c0,0.3,0,0.5,0.2,0.7c0.3,0.3,0.7,0.4,1.1,0.2l2.7-1.4
	c0.1-0.1,0.2-0.1,0.4,0l2.7,1.4c0.4,0.2,0.8,0.1,1.1-0.2c0.2-0.2,0.2-0.5,0.2-0.7L24,7.7c0-0.1,0-0.3,0.1-0.3L26.4,5.3z"/>
<path id="Forma_1_copy_2" class="st0" d="M40.5,5.3c0.2-0.2,0.3-0.6,0.2-0.9S40.3,3.9,40,3.8l-3-0.4c-0.1,0-0.2-0.1-0.3-0.2
	l-1.4-2.7c-0.2-0.4-0.7-0.6-1.2-0.4c-0.2,0.1-0.3,0.2-0.4,0.4l-1.4,2.7c-0.1,0.1-0.2,0.2-0.3,0.2l-3,0.4c-0.3,0-0.6,0.3-0.7,0.6
	c-0.1,0.3,0,0.7,0.2,0.9l2.2,2.1c0.1,0.1,0.1,0.2,0.1,0.3l-0.5,2.9c0,0.3,0,0.5,0.2,0.7c0.3,0.3,0.7,0.4,1.1,0.2l2.7-1.4
	c0.1-0.1,0.3-0.1,0.4,0l2.7,1.4c0.4,0.2,0.8,0.1,1.1-0.2c0.2-0.2,0.2-0.5,0.2-0.7l-0.5-2.9c0-0.1,0-0.3,0.1-0.3L40.5,5.3z"/>
<path id="Forma_1_copy_3" class="st0" d="M54.6,5.3c0.2-0.2,0.3-0.6,0.2-0.9s-0.4-0.5-0.7-0.6l-3-0.4c-0.1,0-0.2-0.1-0.3-0.2
	l-1.4-2.7c-0.2-0.4-0.8-0.6-1.2-0.4l0,0c-0.2,0.1-0.3,0.2-0.4,0.4l-1.4,2.7c-0.1,0.1-0.2,0.2-0.3,0.2l-3,0.4c-0.3,0-0.6,0.3-0.7,0.6
	c-0.1,0.3,0,0.7,0.2,0.9l2.2,2.1C45,7.5,45,7.6,45,7.7l-0.5,2.9c0,0.3,0,0.5,0.2,0.7c0.3,0.3,0.7,0.4,1.1,0.2l2.7-1.4
	c0.1,0,0.3,0,0.4,0l2.7,1.4c0.4,0.2,0.8,0.1,1.1-0.2c0.2-0.2,0.2-0.5,0.2-0.7l-0.5-2.9c0-0.1,0-0.3,0.1-0.3L54.6,5.3z"/>
<path id="Forma_1_copy_4" class="st0" d="M68.8,5.3C69,5,69.1,4.7,69,4.4c-0.1-0.3-0.4-0.5-0.7-0.6l-3-0.4c-0.1,0-0.2-0.1-0.3-0.2
	l-1.4-2.7c-0.2-0.4-0.8-0.6-1.2-0.4l0,0c-0.2,0.1-0.3,0.2-0.4,0.4l-1.3,2.7c-0.1,0.1-0.2,0.2-0.3,0.2l-3,0.4
	c-0.3,0.1-0.6,0.3-0.7,0.6c-0.1,0.3,0,0.7,0.2,0.9l2.2,2.1c0.1,0.1,0.1,0.2,0.1,0.3l-0.5,2.9c0,0.3,0,0.5,0.2,0.7
	c0.3,0.3,0.7,0.4,1.1,0.2l2.7-1.4c0.1,0,0.3,0,0.4,0l2.7,1.4c0.4,0.2,0.8,0.1,1.1-0.2c0.2-0.2,0.2-0.5,0.2-0.7l-0.5-2.9
	c0-0.1,0-0.3,0.1-0.3L68.8,5.3z"/>
</svg>
